<svg id="Layer_1" data-name="Layer 1" xmlns="http://www.w3.org/2000/svg" viewBox="0 0 234.44 60.59"><defs><style>.cls-1,.cls-2{fill:#fff;}.cls-2{font-size:53.39px;font-family:VarelaRound-Regular, Varela Round;}</style></defs><title>cloud-gallery</title><path class="cls-1" d="M11.59,48l.59-2.2L32.4,60.32,18.06,66.85a23.75,23.75,0,0,1-5.78-11c-.18-.8-.46-1.57-.69-2.36Q11.59,50.73,11.59,48Z" transform="translate(-11.59 -23.41)"/><path class="cls-1" d="M38.31,25.57c3.86.76,7.69,1.6,11,3.83,1,.64,1.88,1.31,3.06,2.14L29.74,41.84l1.64-15.57,2.67-.7Z" transform="translate(-11.59 -23.41)"/><path class="cls-1" d="M44.37,73.75,47,48.57l13,8.93C57.46,65.33,52.39,70.63,44.37,73.75Z" transform="translate(-11.59 -23.41)"/><path class="cls-1" d="M28.12,27.11,25.79,51.82c-.82-.56-1.44-1-2-1.39-3.25-2.32-6.52-4.62-9.72-7a2.17,2.17,0,0,1-.79-1.77C15,35.54,21.64,29,28.12,27.11Z" transform="translate(-11.59 -23.41)"/><path class="cls-1" d="M20.32,69.13,42.89,58.88c-.26,2.7-.49,5.14-.74,7.58s-.45,4.61-.78,6.9c-.07.48-.59,1.23-1,1.29C33,75.83,26.4,74,20.32,69.13Z" transform="translate(-11.59 -23.41)"/><path class="cls-1" d="M60.74,54.36,40.44,40.41c4.72-2.15,9.21-4.22,13.72-6.21a1.42,1.42,0,0,1,1.27.39A24.31,24.31,0,0,1,60.74,54.36Z" transform="translate(-11.59 -23.41)"/><text class="cls-2" transform="translate(68.41 45.32)">clouds</text></svg>