<svg id="Layer_1" data-name="Layer 1" xmlns="http://www.w3.org/2000/svg" viewBox="0 0 124.31 30.68"><defs><style>.cls-1{fill:#fff;}</style></defs><title>clouds_logo</title><path class="cls-1" d="M27.44,43.55a10.13,10.13,0,0,1-4-3.79,10.94,10.94,0,0,1-1.5-5.8,11,11,0,0,1,1.5-5.81,10.14,10.14,0,0,1,4-3.79A11.61,11.61,0,0,1,32.92,23a11.41,11.41,0,0,1,3.77.56A14.24,14.24,0,0,1,39.63,25,1.64,1.64,0,0,1,40,27.59a1.44,1.44,0,0,1-1.09.51,1.87,1.87,0,0,1-.91-.25,15.76,15.76,0,0,0-2.33-1,8,8,0,0,0-2.41-.31,7.47,7.47,0,0,0-5.56,2,7.31,7.31,0,0,0-2,5.37,7.31,7.31,0,0,0,2,5.37,7.47,7.47,0,0,0,5.56,2,8.06,8.06,0,0,0,2.41-.31A15.7,15.7,0,0,0,38,40a1.87,1.87,0,0,1,.91-.25,1.44,1.44,0,0,1,1.09.51,1.64,1.64,0,0,1-.35,2.57,14.24,14.24,0,0,1-2.94,1.42,11.4,11.4,0,0,1-3.77.56A11.6,11.6,0,0,1,27.44,43.55Z" transform="translate(-21.92 -14.19)"/><path class="cls-1" d="M45.68,44.13a1.79,1.79,0,0,1-.54-1.32V16.08a1.86,1.86,0,0,1,.54-1.34A1.76,1.76,0,0,1,47,14.19a1.83,1.83,0,0,1,1.89,1.89V42.81a1.76,1.76,0,0,1-.56,1.32,1.86,1.86,0,0,1-1.34.54A1.79,1.79,0,0,1,45.68,44.13Z" transform="translate(-21.92 -14.19)"/><path class="cls-1" d="M59.1,43.51a9.23,9.23,0,0,1-3.69-3.85,12.17,12.17,0,0,1-1.3-5.7,12.17,12.17,0,0,1,1.3-5.7A9.24,9.24,0,0,1,59.1,24.4a12,12,0,0,1,11.08,0,9.37,9.37,0,0,1,3.71,3.85A12,12,0,0,1,75.2,34a12,12,0,0,1-1.32,5.7,9.36,9.36,0,0,1-3.71,3.85,12,12,0,0,1-11.08,0Zm8.79-2.84a6.29,6.29,0,0,0,2.55-2.47,8.24,8.24,0,0,0,1-4.28,8.15,8.15,0,0,0-1-4.24,6.15,6.15,0,0,0-2.55-2.45,7.22,7.22,0,0,0-3.23-.76,7.31,7.31,0,0,0-3.27.76,6,6,0,0,0-2.53,2.45,8.29,8.29,0,0,0-1,4.24,8.38,8.38,0,0,0,1,4.28,6.16,6.16,0,0,0,2.53,2.47,7.15,7.15,0,0,0,3.27.78A7.06,7.06,0,0,0,67.9,40.67Z" transform="translate(-21.92 -14.19)"/><path class="cls-1" d="M83.67,43.79a7,7,0,0,1-2.55-2.92,9.32,9.32,0,0,1-.89-4.08V25.1a1.76,1.76,0,0,1,.56-1.32,1.86,1.86,0,0,1,1.34-.54A1.83,1.83,0,0,1,84,25.1V36.38q0,5,4.53,5a6.55,6.55,0,0,0,3.69-1.07,13.37,13.37,0,0,0,3.07-2.88V25.1a1.76,1.76,0,0,1,.56-1.32,1.86,1.86,0,0,1,1.34-.54A1.83,1.83,0,0,1,99,25.1V42.77a1.86,1.86,0,0,1-.54,1.34,1.76,1.76,0,0,1-1.32.56,1.9,1.9,0,0,1-1.89-1.89V41.08a13.72,13.72,0,0,1-3.38,2.76,8.53,8.53,0,0,1-4.28,1A7.12,7.12,0,0,1,83.67,43.79Z" transform="translate(-21.92 -14.19)"/><path class="cls-1" d="M109.36,43.57a9.84,9.84,0,0,1-3.71-3.79A11.56,11.56,0,0,1,104.23,34a11.57,11.57,0,0,1,1.42-5.83,9.84,9.84,0,0,1,3.71-3.79A9.66,9.66,0,0,1,114.2,23a9.46,9.46,0,0,1,7,3.13V16.08a1.81,1.81,0,0,1,.56-1.36,1.86,1.86,0,0,1,1.34-.54,1.76,1.76,0,0,1,1.32.56,1.86,1.86,0,0,1,.54,1.34V42.81a1.83,1.83,0,0,1-1.85,1.85,1.86,1.86,0,0,1-1.34-.54,1.76,1.76,0,0,1-.56-1.32V41.74a9.46,9.46,0,0,1-7,3.13A9.65,9.65,0,0,1,109.36,43.57Zm8.94-3a10.16,10.16,0,0,0,2.94-2.24V29.63a10.19,10.19,0,0,0-2.94-2.24,7.79,7.79,0,0,0-3.56-.84,6.47,6.47,0,0,0-4.9,1.94A7.6,7.6,0,0,0,108,34a7.6,7.6,0,0,0,1.85,5.48,6.47,6.47,0,0,0,4.9,1.94A7.77,7.77,0,0,0,118.29,40.52Z" transform="translate(-21.92 -14.19)"/><path class="cls-1" d="M130.79,43a1.57,1.57,0,0,1-.7-1.36,1.66,1.66,0,0,1,.45-1.15A1.5,1.5,0,0,1,131.7,40a1.82,1.82,0,0,1,.74.17,16.57,16.57,0,0,0,2.63.91,12.24,12.24,0,0,0,3,.33q4.57,0,4.57-2.92a1.56,1.56,0,0,0-1-1.44,21.48,21.48,0,0,0-3.44-1.11,30.89,30.89,0,0,1-4-1.19,7,7,0,0,1-2.72-1.87,4.76,4.76,0,0,1-1.13-3.31,5.94,5.94,0,0,1,2.08-4.69,8.78,8.78,0,0,1,6-1.81,17.19,17.19,0,0,1,6,1,1.55,1.55,0,0,1,.88.62,1.66,1.66,0,0,1,.31.95,1.61,1.61,0,0,1-.47,1.15,1.56,1.56,0,0,1-1.17.49,2.29,2.29,0,0,1-.54-.08,15.79,15.79,0,0,0-4.69-.74,6.43,6.43,0,0,0-3.48.8,2.39,2.39,0,0,0-1.26,2.08A1.9,1.9,0,0,0,135,31.15a16.39,16.39,0,0,0,3.58,1.11,34.82,34.82,0,0,1,4,1.21,6.55,6.55,0,0,1,2.61,1.87,5.09,5.09,0,0,1,1.09,3.42,5.44,5.44,0,0,1-2.08,4.37,8.93,8.93,0,0,1-5.87,1.73A15.32,15.32,0,0,1,130.79,43Z" transform="translate(-21.92 -14.19)"/></svg>