<?xml version="1.0" encoding="utf-8"?>
<!-- Generator: Adobe Illustrator 21.0.2, SVG Export Plug-In . SVG Version: 6.00 Build 0)  -->
<svg version="1.1" id="Layer_1" xmlns="http://www.w3.org/2000/svg" xmlns:xlink="http://www.w3.org/1999/xlink" x="0px" y="0px"
	 viewBox="0 0 150 50" style="enable-background:new 0 0 150 50;" xml:space="preserve">
<style type="text/css">
	.st0{fill:#FFFFFF;}
</style>
<g>
	<path class="st0" d="M27.1,33.6c0,0.8-0.2,1.6-0.7,2.5c-0.5,0.9-1.2,1.7-2.1,2.5c-0.9,0.8-2.1,1.4-3.5,1.9s-3,0.7-4.8,0.7
		c-3.8,0-6.8-1.1-8.9-3.3C5,35.7,3.9,32.7,3.9,29c0-2.5,0.5-4.7,1.5-6.7c1-1.9,2.4-3.4,4.2-4.5c1.8-1.1,4-1.6,6.6-1.6
		c1.6,0,3,0.2,4.4,0.7c1.3,0.5,2.5,1.1,3.4,1.8c0.9,0.7,1.6,1.5,2.1,2.3c0.5,0.8,0.7,1.6,0.7,2.3c0,0.7-0.3,1.4-0.8,1.9
		c-0.5,0.5-1.2,0.8-2,0.8c-0.5,0-0.9-0.1-1.3-0.4c-0.3-0.3-0.7-0.7-1.1-1.3c-0.7-1.1-1.5-2-2.3-2.6c-0.8-0.6-1.9-0.9-3.1-0.9
		c-1.8,0-3.3,0.7-4.4,2.1c-1.1,1.4-1.7,3.4-1.7,5.8c0,1.2,0.1,2.2,0.4,3.2s0.7,1.8,1.2,2.5c0.5,0.7,1.2,1.2,2,1.6s1.6,0.5,2.5,0.5
		c1.2,0,2.3-0.3,3.2-0.9c0.9-0.6,1.7-1.4,2.3-2.6c0.4-0.7,0.8-1.2,1.2-1.6c0.4-0.4,1-0.6,1.6-0.6c0.7,0,1.4,0.3,1.9,0.9
		S27.1,33,27.1,33.6z"/>
	<path class="st0" d="M31.3,37.5V10.9c0-1.2,0.3-2.2,0.8-2.8c0.5-0.6,1.3-0.9,2.2-0.9c0.9,0,1.7,0.3,2.2,0.9
		c0.6,0.6,0.9,1.6,0.9,2.8v26.6c0,1.2-0.3,2.2-0.9,2.8s-1.3,0.9-2.2,0.9c-0.9,0-1.6-0.3-2.2-1C31.6,39.6,31.3,38.7,31.3,37.5z"/>
	<path class="st0" d="M66.8,28.7c0,1.8-0.3,3.5-0.9,5.1c-0.6,1.5-1.4,2.9-2.5,4c-1.1,1.1-2.4,2-3.9,2.6c-1.5,0.6-3.2,0.9-5.1,0.9
		c-1.9,0-3.5-0.3-5-0.9c-1.5-0.6-2.8-1.5-3.9-2.6c-1.1-1.1-1.9-2.4-2.5-4c-0.6-1.5-0.8-3.2-0.8-5c0-1.9,0.3-3.6,0.9-5.1
		c0.6-1.5,1.4-2.9,2.5-4c1.1-1.1,2.4-1.9,3.9-2.5c1.5-0.6,3.2-0.9,5-0.9c1.9,0,3.5,0.3,5.1,0.9c1.5,0.6,2.8,1.5,3.9,2.6
		c1.1,1.1,1.9,2.4,2.5,4S66.8,26.9,66.8,28.7z M60.6,28.7c0-2.5-0.6-4.5-1.7-5.8c-1.1-1.4-2.6-2.1-4.4-2.1c-1.2,0-2.3,0.3-3.2,0.9
		c-0.9,0.6-1.6,1.5-2.1,2.8s-0.7,2.6-0.7,4.2c0,1.6,0.2,3,0.7,4.2c0.5,1.2,1.2,2.1,2.1,2.8c0.9,0.6,2,1,3.2,1c1.9,0,3.3-0.7,4.4-2.1
		C60.1,33.2,60.6,31.2,60.6,28.7z"/>
	<path class="st0" d="M87.6,37.8V37c-0.7,0.9-1.5,1.7-2.3,2.3c-0.8,0.6-1.7,1.1-2.7,1.4c-1,0.3-2.1,0.5-3.3,0.5
		c-1.5,0-2.8-0.3-4-0.9c-1.2-0.6-2.1-1.5-2.7-2.5c-0.8-1.3-1.1-3.2-1.1-5.6V19.9c0-1.2,0.3-2.1,0.8-2.8c0.6-0.6,1.3-0.9,2.2-0.9
		c0.9,0,1.7,0.3,2.2,0.9c0.6,0.6,0.9,1.5,0.9,2.7v9.8c0,1.4,0.1,2.6,0.4,3.6c0.2,1,0.7,1.7,1.3,2.3c0.6,0.5,1.5,0.8,2.5,0.8
		c1,0,2-0.3,2.9-0.9c0.9-0.6,1.6-1.4,2-2.4c0.3-0.9,0.5-2.8,0.5-5.7v-7.5c0-1.2,0.3-2.1,0.9-2.7c0.6-0.6,1.3-0.9,2.2-0.9
		s1.6,0.3,2.2,0.9c0.6,0.6,0.8,1.5,0.8,2.8v17.8c0,1.2-0.3,2-0.8,2.6c-0.5,0.6-1.2,0.9-2.1,0.9c-0.8,0-1.5-0.3-2.1-0.9
		C87.8,39.7,87.6,38.9,87.6,37.8z"/>
	<path class="st0" d="M116.3,37.7v-0.6c-0.8,0.9-1.6,1.7-2.4,2.3c-0.8,0.6-1.7,1-2.6,1.3c-0.9,0.3-2,0.5-3.1,0.5
		c-1.5,0-2.8-0.3-4.1-0.9c-1.3-0.6-2.3-1.5-3.2-2.7c-0.9-1.2-1.6-2.5-2.1-4.1S98,30.3,98,28.5c0-3.8,0.9-6.8,2.8-9
		c1.9-2.1,4.3-3.2,7.4-3.2c1.8,0,3.3,0.3,4.5,0.9s2.4,1.5,3.6,2.8V11c0-1.3,0.3-2.2,0.8-2.9c0.5-0.6,1.2-1,2.1-1
		c0.9,0,1.6,0.3,2.1,0.9c0.5,0.6,0.8,1.5,0.8,2.6v27.1c0,1.2-0.3,2-0.8,2.6c-0.5,0.6-1.2,0.9-2.1,0.9c-0.8,0-1.5-0.3-2.1-0.9
		C116.5,39.7,116.3,38.8,116.3,37.7z M104.2,28.7c0,1.7,0.3,3.1,0.8,4.2c0.5,1.2,1.2,2,2.1,2.6c0.9,0.6,1.9,0.9,2.9,0.9
		c1.1,0,2.1-0.3,3-0.8c0.9-0.6,1.6-1.4,2.1-2.6c0.5-1.2,0.8-2.6,0.8-4.4c0-1.6-0.3-3-0.8-4.2c-0.5-1.2-1.3-2.1-2.2-2.7
		c-0.9-0.6-1.9-0.9-3-0.9c-1.1,0-2.1,0.3-3,1c-0.9,0.6-1.6,1.6-2.1,2.7C104.4,25.7,104.2,27.1,104.2,28.7z"/>
	<path class="st0" d="M148,33.2c0,1.7-0.4,3.1-1.2,4.4c-0.8,1.2-2,2.1-3.7,2.7s-3.6,0.9-5.9,0.9c-2.2,0-4.1-0.3-5.7-1
		c-1.6-0.7-2.7-1.5-3.5-2.5c-0.8-1-1.1-2-1.1-3c0-0.7,0.2-1.3,0.7-1.7c0.5-0.5,1.1-0.7,1.8-0.7c0.6,0,1.1,0.2,1.5,0.5s0.7,0.8,1,1.3
		c0.6,1.1,1.4,1.9,2.3,2.5c0.9,0.5,2.1,0.8,3.6,0.8c1.2,0,2.2-0.3,3-0.8c0.8-0.5,1.2-1.2,1.2-1.9c0-1.1-0.4-1.9-1.2-2.4
		c-0.8-0.5-2.2-1-4-1.4c-2.1-0.5-3.8-1.1-5.2-1.7c-1.3-0.6-2.4-1.3-3.2-2.3c-0.8-0.9-1.2-2.1-1.2-3.5c0-1.2,0.4-2.4,1.1-3.5
		s1.8-2,3.2-2.6c1.4-0.7,3.2-1,5.2-1c1.6,0,3,0.2,4.3,0.5c1.3,0.3,2.3,0.8,3.2,1.3c0.8,0.6,1.5,1.2,1.9,1.8c0.4,0.7,0.7,1.3,0.7,2
		c0,0.7-0.2,1.3-0.7,1.7c-0.5,0.4-1.1,0.7-2,0.7c-0.6,0-1.2-0.2-1.6-0.5c-0.4-0.4-0.9-0.9-1.5-1.6c-0.5-0.6-1-1.1-1.6-1.4
		c-0.6-0.4-1.5-0.5-2.6-0.5c-1.1,0-2,0.2-2.8,0.7s-1.1,1.1-1.1,1.8c0,0.6,0.3,1.2,0.8,1.6c0.5,0.4,1.3,0.8,2.2,1
		c0.9,0.3,2.2,0.6,3.8,1c1.9,0.5,3.5,1,4.7,1.7c1.2,0.6,2.1,1.4,2.7,2.3C147.7,31.1,148,32.1,148,33.2z"/>
</g>
</svg>
